<?xml version="1.0" encoding="UTF-8"?>
<!DOCTYPE svg PUBLIC "-//W3C//DTD SVG 1.1//EN" "http://www.w3.org/Graphics/SVG/1.1/DTD/svg11.dtd"><svg version="1.1" viewBox="0 0 21590 27940" preserveAspectRatio="xMidYMid" fill-rule="evenodd" xmlns="http://www.w3.org/2000/svg" xmlns:xlink="http://www.w3.org/1999/xlink"><g visibility="visible" id="Default"><desc>Master slide</desc></g><g visibility="visible" id="page1"><desc>Slide</desc><g><desc>Group</desc><g><desc>Drawing</desc><g><g style="stroke:none;fill:rgb(0,0,0)"><path d="M 6647,18158 L 6498,18104 6355,18036 6218,17948 6085,17849 5961,17736 5844,17609 5768,17507 5768,17507 5766,17507 5766,17507 5766,17507 5766,17507 5766,17507 5766,17507 5766,17507 5766,17505 5764,17504 5764,17504 5762,17501 5762,17501 5761,17501 5761,17501 5761,17501 5761,17501 5759,17501 5759,17501 5759,17501 5759,17499 5757,17498 5757,17498 5757,17495 5755,17493 5755,17493 5753,17493 5753,17492 5752,17489 5753,17487 5752,17487 5752,17487 5750,17487 5750,17487 5750,17487 5750,17487 5748,17487 5748,17487 5746,17483 5745,17483 5743,17481 5741,17477 5739,17475 5736,17474 5736,17474 5734,17474 5734,17474 5734,17474 5734,17474 5734,17474 5732,17471 5732,17471 5734,17469 5734,17469 5734,17469 5732,17469 5732,17468 5732,17468 5720,17452 5523,17179 5351,16864 5202,16522 5078,16152 4980,15756 4908,15335 4865,14894 4849,14440 4861,13964 4879,13775 4884,13438 4927,12820 5003,12184 5111,11535 5255,10875 5427,10226 5626,9606 5846,9011 6087,8452 6346,7931 6621,7445 6908,7002 7208,6603 7516,6253 7830,5952 8151,5703 8474,5509 8795,5373 8954,5329 9114,5299 9272,5287 9430,5288 9584,5309 9736,5347 9885,5399 10029,5469 10166,5552 10247,5613 9930,6472 9612,7589 9383,8734 9298,9434 9286,9466 9158,9911 9070,10367 9022,10825 9015,11276 9047,11723 9109,12099 9100,12365 9110,12634 9142,12896 9196,13149 9268,13392 9359,13625 9359,13626 9360,13628 9465,13841 9469,13847 9469,13847 9469,13848 9470,13851 9472,13853 9476,13854 9476,13857 9479,13863 9479,13865 9481,13866 9483,13869 9485,13869 9486,13872 9490,13878 9493,13885 9495,13890 9499,13894 9501,13897 9504,13902 9564,14212 9814,15096 9821,15389 9795,15702 9736,16016 9646,16319 9527,16607 9380,16873 9210,17121 9018,17347 8970,17393 8945,17416 8921,17440 8786,17565 8570,17730 8321,17885 8055,18015 7828,18100 7823,18124 7601,18186 7305,18226 7009,18216 7005,18216 7000,18214 6998,18214 6997,18214 6993,18214 6991,18214 6989,18214 6988,18213 6986,18213 6984,18214 6982,18213 6981,18213 6979,18213 6977,18213 6977,18214 6975,18213 6970,18213 6966,18213 6965,18213 6963,18213 6963,18213 6961,18213 6959,18213 6958,18213 6956,18214 6956,18213 6800,18192 6647,18158 Z"/></g><g style="stroke:rgb(0,0,0);fill:none"><path style="fill:none" d="M 6647,18158 L 6498,18104 6355,18036 6218,17948 6085,17849 5961,17736 5844,17609 5768,17507 5766,17507 5766,17505 5764,17504 5762,17501 5761,17501 5759,17501 5759,17499 5757,17498 5757,17495 5755,17493 5753,17493 5753,17492 5752,17489 5753,17487 5752,17487 5750,17487 5748,17487 5746,17483 5745,17483 5743,17481 5741,17477 5739,17475 5736,17474 5734,17474 5732,17471 5734,17469 5732,17469 5732,17468 5720,17452 5523,17179 5351,16864 5202,16522 5078,16152 4980,15756 4908,15335 4865,14894 4849,14440 4861,13964 4879,13775 4884,13438 4927,12820 5003,12184 5111,11535 5255,10875 5427,10226 5626,9606 5846,9011 6087,8452 6346,7931 6621,7445 6908,7002 7208,6603 7516,6253 7830,5952 8151,5703 8474,5509 8795,5373 8954,5329 9114,5299 9272,5287 9430,5288 9584,5309 9736,5347 9885,5399 10029,5469 10166,5552 10247,5613 9930,6472 9612,7589 9383,8734 9298,9434 9286,9466 9158,9911 9070,10367 9022,10825 9015,11276 9047,11723 9109,12099 9100,12365 9110,12634 9142,12896 9196,13149 9268,13392 9359,13625 9359,13626 9360,13628 9465,13841 9469,13847 9469,13848 9470,13851 9472,13853 9476,13854 9476,13857 9479,13863 9479,13865 9481,13866 9483,13869 9485,13869 9486,13872 9490,13878 9493,13885 9495,13890 9499,13894 9501,13897 9504,13902 9564,14212 9814,15096 9821,15389 9795,15702 9736,16016 9646,16319 9527,16607 9380,16873 9210,17121 9018,17347 8970,17393 8945,17416 8921,17440 8786,17565 8570,17730 8321,17885 8055,18015 7828,18100 7823,18124 7601,18186 7305,18226 7009,18216 7005,18216 7000,18214 6998,18214 6997,18214 6993,18214 6991,18214 6989,18214 6988,18213 6986,18213 6984,18214 6982,18213 6981,18213 6979,18213 6977,18213 6977,18214 6975,18213 6970,18213 6966,18213 6965,18213 6963,18213 6961,18213 6959,18213 6958,18213 6956,18214 6956,18213 6800,18192 6647,18158"/></g><g/></g></g><g><desc>Drawing</desc><g><g style="stroke:none;fill:rgb(0,0,0)"><path d="M 7431,21715 L 7326,21635 7229,21545 7142,21447 7064,21339 6995,21225 6938,21103 6892,20976 6860,20842 6839,20705 6832,20563 6839,20421 6860,20283 6892,20149 6938,20022 6995,19900 7064,19787 7142,19678 7229,19580 7326,19492 7431,19410 7543,19340 7660,19281 7786,19235 7915,19200 8050,19180 8188,19171 8327,19180 8461,19200 8591,19235 8717,19281 8834,19340 8947,19410 9050,19492 9148,19580 9235,19678 9313,19787 9382,19900 9438,20022 9485,20149 9516,20283 9538,20421 9545,20563 9538,20705 9516,20842 9485,20976 9438,21103 9382,21225 9313,21339 9235,21447 9148,21545 9050,21635 8947,21715 8944,21716 8922,21760 8882,21827 8832,21891 8779,21947 8720,22001 8655,22046 8585,22088 8513,22123 8437,22149 8357,22169 8273,22181 8188,22186 8103,22181 8020,22169 7940,22149 7864,22123 7791,22088 7722,22046 7656,22001 7598,21947 7545,21891 7495,21827 7454,21760 7433,21716 7431,21715 Z"/></g><g style="stroke:rgb(0,0,0);fill:none"><path style="fill:none" d="M 7431,21715 L 7326,21635 7229,21545 7142,21447 7064,21339 6995,21225 6938,21103 6892,20976 6860,20842 6839,20705 6832,20563 6839,20421 6860,20283 6892,20149 6938,20022 6995,19900 7064,19787 7142,19678 7229,19580 7326,19492 7431,19410 7543,19340 7660,19281 7786,19235 7915,19200 8050,19180 8188,19171 8327,19180 8461,19200 8591,19235 8717,19281 8834,19340 8947,19410 9050,19492 9148,19580 9235,19678 9313,19787 9382,19900 9438,20022 9485,20149 9516,20283 9538,20421 9545,20563 9538,20705 9516,20842 9485,20976 9438,21103 9382,21225 9313,21339 9235,21447 9148,21545 9050,21635 8947,21715 8944,21716 8922,21760 8882,21827 8832,21891 8779,21947 8720,22001 8655,22046 8585,22088 8513,22123 8437,22149 8357,22169 8273,22181 8188,22186 8103,22181 8020,22169 7940,22149 7864,22123 7791,22088 7722,22046 7656,22001 7598,21947 7545,21891 7495,21827 7454,21760 7433,21716 7431,21715"/></g><g/></g></g><g><desc>Drawing</desc><g><g style="stroke:none;fill:rgb(0,0,0)"><path d="M 14913,18246 L 15062,18192 15205,18124 15342,18036 15475,17937 15599,17824 15716,17697 15792,17595 15792,17595 15794,17595 15794,17595 15794,17595 15794,17595 15794,17595 15794,17595 15794,17595 15794,17593 15796,17592 15796,17592 15798,17589 15798,17589 15799,17589 15799,17589 15799,17589 15799,17589 15801,17589 15801,17589 15801,17589 15801,17587 15803,17586 15803,17586 15803,17583 15805,17581 15805,17581 15807,17581 15807,17580 15808,17577 15807,17575 15808,17575 15808,17575 15810,17575 15810,17575 15810,17575 15810,17575 15812,17575 15812,17575 15814,17571 15815,17571 15817,17569 15819,17565 15821,17563 15824,17562 15824,17562 15826,17562 15826,17562 15826,17562 15826,17562 15826,17562 15828,17559 15828,17559 15826,17557 15826,17557 15826,17557 15828,17557 15828,17556 15828,17556 15840,17539 16037,17267 16209,16952 16358,16610 16482,16240 16580,15844 16652,15423 16695,14982 16711,14528 16699,14052 16681,13863 16676,13526 16633,12908 16557,12272 16449,11623 16305,10963 16133,10313 15934,9694 15714,9099 15473,8540 15214,8019 14939,7533 14652,7090 14352,6691 14044,6341 13730,6040 13409,5791 13086,5597 12765,5461 12606,5417 12446,5387 12288,5375 12130,5376 11976,5397 11824,5435 11675,5487 11531,5557 11394,5640 11313,5701 11630,6560 11948,7677 12177,8822 12262,9522 12274,9553 12402,9999 12490,10455 12538,10913 12545,11364 12513,11811 12451,12187 12460,12453 12450,12722 12418,12984 12364,13237 12292,13480 12201,13713 12201,13714 12200,13716 12095,13929 12091,13935 12091,13935 12091,13936 12090,13939 12088,13941 12084,13942 12084,13945 12081,13951 12081,13953 12079,13954 12077,13957 12075,13957 12074,13960 12070,13966 12067,13973 12065,13978 12061,13982 12059,13985 12056,13990 11996,14300 11746,15183 11739,15477 11765,15790 11824,16104 11914,16407 12033,16694 12180,16961 12350,17209 12542,17435 12590,17481 12615,17504 12639,17528 12774,17653 12990,17818 13239,17973 13505,18103 13732,18188 13737,18212 13959,18274 14255,18314 14551,18304 14555,18304 14560,18302 14562,18302 14563,18302 14567,18302 14569,18302 14571,18302 14572,18301 14574,18301 14576,18302 14578,18301 14579,18301 14581,18301 14583,18301 14583,18302 14585,18301 14590,18301 14594,18301 14595,18301 14597,18301 14597,18301 14599,18301 14601,18301 14602,18301 14604,18302 14604,18301 14760,18280 14913,18246 Z"/></g><g style="stroke:rgb(0,0,0);fill:none"><path style="fill:none" d="M 14913,18246 L 15062,18192 15205,18124 15342,18036 15475,17937 15599,17824 15716,17697 15792,17595 15794,17595 15794,17593 15796,17592 15798,17589 15799,17589 15801,17589 15801,17587 15803,17586 15803,17583 15805,17581 15807,17581 15807,17580 15808,17577 15807,17575 15808,17575 15810,17575 15812,17575 15814,17571 15815,17571 15817,17569 15819,17565 15821,17563 15824,17562 15826,17562 15828,17559 15826,17557 15828,17557 15828,17556 15840,17539 16037,17267 16209,16952 16358,16610 16482,16240 16580,15844 16652,15423 16695,14982 16711,14528 16699,14052 16681,13863 16676,13526 16633,12908 16557,12272 16449,11623 16305,10963 16133,10313 15934,9694 15714,9099 15473,8540 15214,8019 14939,7533 14652,7090 14352,6691 14044,6341 13730,6040 13409,5791 13086,5597 12765,5461 12606,5417 12446,5387 12288,5375 12130,5376 11976,5397 11824,5435 11675,5487 11531,5557 11394,5640 11313,5701 11630,6560 11948,7677 12177,8822 12262,9522 12274,9553 12402,9999 12490,10455 12538,10913 12545,11364 12513,11811 12451,12187 12460,12453 12450,12722 12418,12984 12364,13237 12292,13480 12201,13713 12201,13714 12200,13716 12095,13929 12091,13935 12091,13936 12090,13939 12088,13941 12084,13942 12084,13945 12081,13951 12081,13953 12079,13954 12077,13957 12075,13957 12074,13960 12070,13966 12067,13973 12065,13978 12061,13982 12059,13985 12056,13990 11996,14300 11746,15183 11739,15477 11765,15790 11824,16104 11914,16407 12033,16694 12180,16961 12350,17209 12542,17435 12590,17481 12615,17504 12639,17528 12774,17653 12990,17818 13239,17973 13505,18103 13732,18188 13737,18212 13959,18274 14255,18314 14551,18304 14555,18304 14560,18302 14562,18302 14563,18302 14567,18302 14569,18302 14571,18302 14572,18301 14574,18301 14576,18302 14578,18301 14579,18301 14581,18301 14583,18301 14583,18302 14585,18301 14590,18301 14594,18301 14595,18301 14597,18301 14599,18301 14601,18301 14602,18301 14604,18302 14604,18301 14760,18280 14913,18246"/></g><g/></g></g><g><desc>Drawing</desc><g><g style="stroke:none;fill:rgb(0,0,0)"><path d="M 13920,22153 L 14024,22073 14122,21983 14209,21885 14287,21778 14356,21663 14413,21541 14459,21414 14491,21280 14512,21143 14519,21001 14512,20860 14491,20721 14459,20587 14413,20460 14356,20338 14287,20225 14209,20116 14122,20018 14024,19930 13920,19848 13808,19778 13691,19720 13565,19673 13436,19638 13301,19618 13163,19609 13024,19618 12889,19638 12760,19673 12634,19720 12517,19778 12404,19848 12301,19930 12203,20018 12116,20116 12038,20225 11969,20338 11912,20460 11866,20587 11834,20721 11813,20860 11806,21001 11813,21143 11834,21280 11866,21414 11912,21541 11969,21663 12038,21778 12116,21885 12203,21983 12301,22073 12404,22153 12407,22155 12428,22198 12469,22265 12519,22329 12572,22386 12631,22439 12696,22484 12765,22526 12838,22561 12914,22587 12994,22608 13077,22620 13163,22624 13248,22620 13331,22608 13411,22587 13487,22561 13560,22526 13629,22484 13695,22439 13753,22386 13806,22329 13856,22265 13897,22198 13918,22155 13920,22153 Z"/></g><g style="stroke:rgb(0,0,0);fill:none"><path style="fill:none" d="M 13920,22153 L 14024,22073 14122,21983 14209,21885 14287,21778 14356,21663 14413,21541 14459,21414 14491,21280 14512,21143 14519,21001 14512,20860 14491,20721 14459,20587 14413,20460 14356,20338 14287,20225 14209,20116 14122,20018 14024,19930 13920,19848 13808,19778 13691,19720 13565,19673 13436,19638 13301,19618 13163,19609 13024,19618 12889,19638 12760,19673 12634,19720 12517,19778 12404,19848 12301,19930 12203,20018 12116,20116 12038,20225 11969,20338 11912,20460 11866,20587 11834,20721 11813,20860 11806,21001 11813,21143 11834,21280 11866,21414 11912,21541 11969,21663 12038,21778 12116,21885 12203,21983 12301,22073 12404,22153 12407,22155 12428,22198 12469,22265 12519,22329 12572,22386 12631,22439 12696,22484 12765,22526 12838,22561 12914,22587 12994,22608 13077,22620 13163,22624 13248,22620 13331,22608 13411,22587 13487,22561 13560,22526 13629,22484 13695,22439 13753,22386 13806,22329 13856,22265 13897,22198 13918,22155 13920,22153"/></g><g/></g></g></g></g></svg>